<svg width="120" height="41" viewBox="0 0 120 41" fill="none" xmlns="http://www.w3.org/2000/svg">
<g clip-path="url(#clip0)">
<path d="M14.1493 6.40592C13.932 6.40592 13.7378 6.54447 13.6679 6.75021L9.5481 18.8215C9.38786 19.2915 8.71764 19.2772 8.57776 18.8005L5.04401 6.77125C4.98017 6.55464 4.78121 6.40592 4.5551 6.40592H0.510021C0.163709 6.40592 -0.0814242 6.74343 0.0251857 7.07206L6.22825 26.1905C6.29616 26.4003 6.49174 26.543 6.71242 26.543H10.8974C11.116 26.543 11.3102 26.4031 11.3802 26.196L15.6656 13.4843C15.8211 13.0239 16.471 13.0212 16.6299 13.4802L21.0267 26.2C21.098 26.4051 21.2908 26.543 21.5081 26.543H25.5702C25.7915 26.543 25.9878 26.3997 26.055 26.1885L32.1794 7.07071C32.2846 6.74207 32.0394 6.40592 31.6943 6.40592H27.8965C27.6697 6.40592 27.47 6.556 27.4069 6.77399L23.9506 18.7835C23.8128 19.2622 23.1399 19.2786 22.9789 18.8073L18.8646 6.75021C18.7946 6.54447 18.6005 6.40592 18.3832 6.40592H14.1493ZM32.615 21.0839C32.615 24.2672 35.2198 27.162 39.4372 27.162C41.7242 27.162 43.3825 26.3519 44.4981 25.3408C44.8777 24.9965 45.6681 25.2505 45.7219 25.7598C45.7387 25.9275 45.7579 26.0681 45.7746 26.1828C45.8079 26.3994 45.9948 26.542 46.2134 26.542H49.6909C50.0365 26.542 50.0677 26.2351 50.0642 25.9282C50.0575 25.3442 50.0642 24.4662 50.0642 23.3166V13.3102C50.0642 9.29908 47.7072 5.78437 41.5051 5.78437C36.7578 5.78437 33.6762 8.62277 33.0923 11.91C33.0468 12.1647 33.2185 12.4023 33.4704 12.4594L36.8507 13.2246C37.1489 13.2919 37.4362 13.082 37.5033 12.784C37.8965 11.0327 39.2647 9.71262 41.5463 9.71262C44.1927 9.71262 45.3503 11.0775 45.3503 12.7724C45.3503 13.4752 45.0196 14.0544 43.862 14.2201L38.6931 15.0051C35.2611 15.5015 32.615 17.4863 32.615 21.0839ZM40.3472 23.3994C38.4452 23.3994 37.4117 22.1588 37.4117 20.7946C37.4117 19.1405 38.6108 18.3134 40.0993 18.0649L44.7656 17.3668C45.0739 17.3213 45.3503 17.5597 45.3503 17.8706V18.1891C45.3503 22.1174 43.0348 23.3994 40.3472 23.3994ZM58.0949 26.5418C58.376 26.5418 58.6039 26.3136 58.6039 26.0325V0.509282C58.6039 0.228159 58.376 0 58.0949 0H54.3165C54.0353 0 53.8072 0.228159 53.8072 0.509282V26.0325C53.8072 26.3136 54.0353 26.5418 54.3165 26.5418H58.0949ZM67.0017 26.5418C67.2829 26.5418 67.511 26.3136 67.511 26.0325V0.509282C67.511 0.228159 67.2829 0 67.0017 0H63.2233C62.9422 0 62.714 0.228159 62.714 0.509282V26.0325C62.714 26.3136 62.9422 26.5418 63.2233 26.5418H67.0017ZM75.1069 15.4628C74.8202 15.5396 74.5266 15.3561 74.5069 15.0605C74.3732 13.0477 75.5018 10.7341 78.1726 10.0184C81.1281 9.22653 83.1155 10.5619 83.9425 12.5512C84.0537 12.8174 83.8903 13.1093 83.6113 13.184L75.1069 15.4628ZM86.5007 18.0036C86.2225 17.991 85.9885 18.2041 85.9506 18.48C85.6951 20.3622 84.6072 21.9929 82.0368 22.6817C79.3292 23.4072 76.6146 22.1232 75.5454 19.5316C75.435 19.2639 75.5982 18.9699 75.8774 18.895L89.2796 15.3039C89.466 15.254 89.5858 15.101 89.5592 14.9092C89.5195 14.6274 89.4359 14.1893 89.3081 13.7125C87.6601 7.56207 83.0854 4.54945 77.0944 6.15473C72.1816 7.4711 68.72 12.765 70.368 18.9161C72.1339 25.5059 77.8345 28.0882 83.1067 26.6756C87.5656 25.4807 89.8981 22.1661 90.2136 18.6741C90.2389 18.3953 90.0206 18.1606 89.7416 18.1476L86.5007 18.0036ZM98.2917 0.754214C98.2917 0.472411 98.0643 0.244931 97.7826 0.244931H94.46C94.1781 0.244931 93.9507 0.472411 93.9507 0.754214V3.26327C93.9507 5.04102 92.9992 6.40589 90.8494 6.40589H90.3246C90.0435 6.40589 89.8153 6.63336 89.8153 6.91517V10.1556C89.8153 10.4367 90.0435 10.6649 90.3246 10.6649H93.0279C93.3088 10.6649 93.537 10.8923 93.537 11.1741V20.7955C93.537 24.5581 95.8527 26.7909 99.5738 26.7909C100.897 26.7909 101.741 26.5986 102.195 26.4519C102.389 26.3902 102.509 26.2041 102.509 26.0004V22.9875C102.509 22.6663 102.215 22.4205 101.895 22.4598C101.582 22.4979 101.202 22.5318 100.856 22.5318C99.0773 22.5318 98.2917 21.7876 98.2917 20.0099V11.1741C98.2917 10.8923 98.5198 10.6649 98.801 10.6649H101.959C102.24 10.6649 102.469 10.4367 102.469 10.1556V6.91517C102.469 6.63336 102.24 6.40589 101.959 6.40589H98.801C98.5198 6.40589 98.2917 6.17773 98.2917 5.89662V0.754214ZM104.303 20.9678C104.062 21.035 103.903 21.2666 103.952 21.511C104.416 23.8034 106.719 27.162 112.197 27.162C117.324 27.162 119.805 23.7715 119.805 20.7118C119.805 17.7342 117.82 15.4186 114.016 14.5915L110.957 13.9716C109.716 13.7237 108.93 12.9381 108.93 11.8632C108.93 10.6225 110.129 9.54761 111.825 9.54761C114.103 9.54761 115.074 10.8847 115.418 11.9969C115.509 12.2923 115.81 12.4899 116.108 12.4057L119.161 11.5331C119.41 11.4618 119.568 11.2154 119.505 10.9641C118.991 8.92697 117.05 5.78437 111.825 5.78437C107.648 5.78437 104.423 8.76196 104.423 12.276C104.423 15.0465 106.284 17.3621 109.84 18.1477L112.817 18.8098C114.43 19.1405 115.174 19.9675 115.174 21.0425C115.174 22.2831 114.14 23.358 112.156 23.358C109.879 23.358 108.548 22.0862 108.162 20.5271C108.086 20.2188 107.78 20.0042 107.474 20.0891L104.303 20.9678Z" fill="#00C9B6"/>
<path d="M84.0825 39.4346C84.0825 40.0876 84.6046 40.61 85.2571 40.61C85.9105 40.61 86.4469 40.0876 86.4469 39.4346C86.4469 38.782 85.9105 38.2456 85.2571 38.2456C84.6046 38.2456 84.0825 38.782 84.0825 39.4346ZM87.2856 38.6071C87.2856 39.7242 88.1996 40.7394 89.679 40.7394C90.4191 40.7394 90.9719 40.4976 91.3603 40.1811C91.5275 40.0453 91.873 40.2668 91.9164 40.4779C91.9356 40.5682 91.9899 40.5221 92.0815 40.5221H93.0796C93.2942 40.5221 93.4593 40.3251 93.4396 40.1119C93.422 39.9236 93.4071 39.6792 93.4071 39.3901V35.8801C93.4071 34.473 92.5799 33.2398 90.4042 33.2398C88.8071 33.2398 87.7472 34.1559 87.4823 35.2486C87.4416 35.4163 87.5577 35.5752 87.7254 35.6133L88.5946 35.8101C88.793 35.8551 88.9831 35.7129 89.0502 35.5209C89.2349 34.9954 89.6961 34.6176 90.4186 34.6176C91.3475 34.6176 91.7535 35.0966 91.7535 35.6913C91.7535 35.9379 91.6374 36.1407 91.2314 36.1993L89.4176 36.4748C88.2137 36.6487 87.2856 37.3446 87.2856 38.6071ZM89.9982 39.4191C89.3308 39.4191 88.9682 38.9841 88.9682 38.5051C88.9682 37.9253 89.3891 37.6354 89.9114 37.5478L91.4378 37.3196C91.6042 37.2946 91.7535 37.4234 91.7535 37.592C91.7535 38.9697 90.9407 39.4191 89.9982 39.4191ZM97.8567 31.4574C97.9158 31.4574 97.9706 31.4593 98.0217 31.4622C98.247 31.4736 98.4658 31.3059 98.4658 31.0799V30.3035C98.4658 30.1752 98.3918 30.0591 98.2667 30.028C98.0984 29.9859 97.8553 29.9492 97.5808 29.9492C96.1299 29.9492 95.1147 30.9066 95.1147 32.4875V33.1198C95.1147 33.3077 94.9627 33.4592 94.7753 33.4592H94.221C94.0335 33.4592 93.8815 33.6112 93.8815 33.7987V34.5851C93.8815 34.7725 94.0335 34.9246 94.221 34.9246H94.7753C94.9627 34.9246 95.1147 35.0766 95.1147 35.264V40.1843C95.1147 40.3717 95.2667 40.524 95.4542 40.524H96.472C96.6602 40.524 96.8117 40.3717 96.8117 40.1843V35.264C96.8117 35.0766 96.9637 34.9246 97.1511 34.9246H98.1112C98.2994 34.9246 98.4509 34.7725 98.4509 34.5851V33.7987C98.4509 33.6112 98.2994 33.4592 98.1112 33.4592H97.1511C96.9637 33.4592 96.8117 33.3077 96.8117 33.1198V32.5309C96.8117 31.6611 97.4065 31.4574 97.8567 31.4574ZM103.193 33.6935C103.193 33.5319 103.078 33.3905 102.917 33.3783C102.863 33.3743 102.805 33.3716 102.743 33.3716C102.17 33.3716 101.653 33.5425 101.263 33.8543C101.098 33.9861 100.698 33.8644 100.698 33.6533C100.698 33.546 100.611 33.4584 100.503 33.4584H99.3984C99.2105 33.4584 99.059 33.6104 99.059 33.7979V40.1837C99.059 40.3712 99.2105 40.5232 99.3984 40.5232H100.402C100.59 40.5232 100.742 40.3712 100.742 40.1837V37.1577C100.742 35.8377 101.336 35.0835 102.642 35.0835C102.693 35.0835 102.746 35.0848 102.799 35.0875C103.007 35.0971 103.193 34.9395 103.193 34.731V33.6935ZM105.212 40.5235C105.399 40.5235 105.551 40.3714 105.551 40.184V33.7981C105.551 33.6107 105.399 33.4587 105.212 33.4587H104.222C104.035 33.4587 103.883 33.6107 103.883 33.7981V40.184C103.883 40.3714 104.035 40.5235 104.222 40.5235H105.212ZM103.622 30.9787C103.622 31.5879 104.115 32.0665 104.71 32.0665C105.319 32.0665 105.812 31.5879 105.812 30.9787C105.812 30.369 105.319 29.876 104.71 29.876C104.115 29.876 103.622 30.369 103.622 30.9787ZM110.071 34.7923C110.944 34.7923 111.423 35.252 111.658 35.7584C111.742 35.941 111.947 36.0518 112.135 35.9834L113.002 35.6663C113.167 35.6064 113.26 35.4312 113.199 35.2675C112.815 34.2334 111.793 33.2398 110.057 33.2398C108.026 33.2398 106.445 34.8066 106.445 36.982C106.445 39.1292 108.026 40.7394 110.1 40.7394C111.788 40.7394 112.816 39.7445 113.24 38.7354C113.31 38.569 113.216 38.3851 113.047 38.3233L112.209 38.019C112.025 37.9524 111.824 38.0557 111.735 38.2296C111.489 38.7035 110.988 39.2019 110.1 39.2019C109.041 39.2019 108.127 38.404 108.127 36.982C108.127 35.5609 109.041 34.7923 110.071 34.7923ZM113.641 38.6071C113.641 39.7242 114.555 40.7394 116.034 40.7394C116.774 40.7394 117.327 40.4976 117.716 40.1811C117.882 40.0453 118.228 40.2668 118.272 40.4779C118.29 40.5682 118.344 40.5221 118.437 40.5221H119.435C119.649 40.5221 119.815 40.3251 119.795 40.1119C119.777 39.9236 119.762 39.6792 119.762 39.3901V35.8801C119.762 34.473 118.935 33.2398 116.76 33.2398C115.162 33.2398 114.102 34.1559 113.838 35.2486C113.797 35.4163 113.912 35.5752 114.081 35.6133L114.949 35.8101C115.148 35.8551 115.338 35.7129 115.405 35.5209C115.589 34.9954 116.051 34.6176 116.774 34.6176C117.702 34.6176 118.108 35.0966 118.108 35.6913C118.108 35.9379 117.993 36.1407 117.586 36.1993L115.773 36.4748C114.569 36.6487 113.641 37.3446 113.641 38.6071ZM116.354 39.4191C115.686 39.4191 115.323 38.9841 115.323 38.5051C115.323 37.9253 115.744 37.6354 116.266 37.5478L117.793 37.3196C117.959 37.2946 118.108 37.4234 118.108 37.592C118.108 38.9697 117.296 39.4191 116.354 39.4191Z" fill="#532D94"/>
</g>
<defs>
<clipPath id="clip0">
<rect width="119.805" height="41" fill="white"/>
</clipPath>
</defs>
</svg>
