<svg width="1440" height="554" viewBox="0 0 1440 554" fill="none" xmlns="http://www.w3.org/2000/svg">
<path d="M-720 410.903C-720 410.903 -540 246.542 -360 246.542C-180 246.542 2.86102e-05 410.903 2.86102e-05 410.903C2.86102e-05 410.903 180 575.264 360 575.264C540 575.264 720 410.903 720 410.903C720 410.903 900 246.542 1080 246.542C1260 246.542 1440 410.903 1440 410.903C1440 410.903 1620 575.264 1800 575.264C1980 575.264 2160 410.903 2160 410.903" stroke="#3066B3" stroke-opacity="0.2" stroke-width="2.5"/>
<path d="M-720 246.541C-720 246.541 -540 82.1804 -360 82.1804C-180 82.1804 2.86102e-05 246.541 2.86102e-05 246.541C2.86102e-05 246.541 180 410.903 360 410.903C540 410.903 720 246.541 720 246.541C720 246.541 900 82.1804 1080 82.1804C1260 82.1804 1440 246.541 1440 246.541C1440 246.541 1620 410.903 1800 410.903C1980 410.903 2160 246.541 2160 246.541" stroke="#3066BE" stroke-opacity="0.2" stroke-width="2.5"/>
<path d="M-720 575.264C-720 575.264 -540 410.903 -360 410.903C-180 410.903 2.86102e-05 575.264 2.86102e-05 575.264C2.86102e-05 575.264 180 739.625 360 739.625C540 739.625 720 575.264 720 575.264C720 575.264 900 410.903 1080 410.903C1260 410.903 1440 575.264 1440 575.264C1440 575.264 1620 739.625 1800 739.625C1980 739.625 2160 575.264 2160 575.264" stroke="#3066BE" stroke-opacity="0.2" stroke-width="2.5"/>
<path d="M-720 82.1805C-720 82.1805 -540 -82.1805 -360 -82.1805C-180 -82.1805 2.86102e-05 82.1805 2.86102e-05 82.1805C2.86102e-05 82.1805 180 246.542 360 246.542C540 246.542 720 82.1805 720 82.1805C720 82.1805 900 -82.1805 1080 -82.1805C1260 -82.1805 1440 82.1805 1440 82.1805C1440 82.1805 1620 246.542 1800 246.542C1980 246.542 2160 82.1805 2160 82.1805" stroke="#3066BE" stroke-opacity="0.2" stroke-width="2.5"/>
<path d="M-720 -82.1806C-720 -82.1806 -540 -246.542 -360 -246.542C-180 -246.542 2.86102e-05 -82.1806 2.86102e-05 -82.1806C2.86102e-05 -82.1806 180 82.1805 360 82.1805C540 82.1805 720 -82.1806 720 -82.1806C720 -82.1806 900 -246.542 1080 -246.542C1260 -246.542 1440 -82.1806 1440 -82.1806C1440 -82.1806 1620 82.1805 1800 82.1805C1980 82.1805 2160 -82.1806 2160 -82.1806" stroke="#3066BE" stroke-opacity="0.2" stroke-width="2.5"/>
</svg>
